<?xml version="1.0" encoding="iso-8859-1"?>
<!-- Generator: Adobe Illustrator 19.0.0, SVG Export Plug-In . SVG Version: 6.00 Build 0)  -->
<svg version="1.1" id="Layer_1" xmlns="http://www.w3.org/2000/svg" xmlns:xlink="http://www.w3.org/1999/xlink" x="0px" y="0px"
	 viewBox="0 0 512 512" style="enable-background:new 0 0 512 512;" xml:space="preserve">
<path style="fill:#D55400;" d="M421.247,306.389c-63.316,0-68.223,2.348-76.415-7.848c-3.986-4.962-5.506-11.465-4.134-17.679
	c1.786-8.089,2.692-16.454,2.692-24.861c0-8.407-0.904-16.771-2.692-24.861c-2.888-13.092,7.085-25.528,20.506-25.528h60.044
	c11.598,0,21,9.402,21,21v58.777C442.247,296.986,432.845,306.389,421.247,306.389z"/>
<path style="fill:#E87E04;" d="M339.534,93.666H115.683c-11.598,0-21-9.402-21-21V21c0-11.598,9.402-21,21-21h223.851
	c11.598,0,21,9.402,21,21v51.666C360.534,84.264,351.133,93.666,339.534,93.666z"/>
<path style="fill:#D55400;" d="M339.534,0H227.609v93.666h111.925c11.598,0,21-9.402,21-21V21C360.534,9.402,351.133,0,339.534,0z"
	/>
<path style="fill:#E87E04;" d="M339.534,512H115.683c-11.598,0-21-9.402-21-21v-51.666c0-11.598,9.402-21,21-21h223.851
	c11.598,0,21,9.402,21,21V491C360.534,502.598,351.133,512,339.534,512z"/>
<path style="fill:#D55400;" d="M339.534,418.334H227.609V512h111.925c11.598,0,21-9.402,21-21v-51.666
	C360.534,427.736,351.133,418.334,339.534,418.334z"/>
<path style="fill:#F59D00;" d="M340.632,230.816c-26.497-119.704-199.359-120.547-226.045,0
	c-5.599,25.283-43.384,19.702-41.446-6.112l11.54-153.611c0.823-10.958,9.954-19.427,20.941-19.427h243.973
	c10.989,0,20.118,8.47,20.941,19.427l11.539,153.611C384.015,250.535,346.225,256.082,340.632,230.816z"/>
<path style="fill:#E87E04;" d="M382.076,224.703L370.537,71.093c-0.823-10.958-9.953-19.427-20.941-19.427H227.61v88.555
	c56.71,0,101.858,40.159,113.022,90.595C346.227,256.099,384.014,250.515,382.076,224.703z"/>
<path style="fill:#F59D00;" d="M349.596,460.334H105.623c-10.987,0-20.118-8.47-20.941-19.427L73.142,287.297
	c-1.939-25.818,35.852-31.388,41.446-6.112c11.16,50.413,56.279,90.595,113.022,90.595c56.71,0,101.858-40.159,113.023-90.595
	c5.597-25.276,43.382-19.704,41.446,6.112L370.54,440.907C369.714,451.864,360.585,460.334,349.596,460.334z"/>
<path style="fill:#E87E04;" d="M340.632,281.184c-11.158,50.412-56.281,90.595-113.022,90.595v88.555h121.986
	c10.989,0,20.118-8.47,20.941-19.427l11.539-153.611C384.014,261.48,346.227,255.91,340.632,281.184z"/>
<path style="fill:#F2C500;" d="M227.609,413.779c-100.616,0-176.007-93.539-154.022-192.076
	c36.379-164.339,271.975-162.925,308.052,0.034c0.035,0.161,0.07,0.322,0.101,0.483c4.771,21.703,4.969,45.055-0.031,67.696
	C366.133,361.212,302.519,413.779,227.609,413.779z"/>
<path style="fill:#F59D00;" d="M381.74,222.221c-0.031-0.161-0.066-0.322-0.101-0.483C365.916,150.717,302.513,98.221,227.61,98.221
	v315.559c74.863,0,138.513-52.524,154.101-123.863C386.492,268.265,386.728,244.911,381.74,222.221z"/>
<path style="fill:#58595B;" d="M283.612,234.999h-35.003v-58.08c0-11.598-9.402-21-21-21s-21,9.402-21,21v79.08
	c0,11.598,9.402,21,21,21h56.003c11.598,0,21-9.402,21-21C304.612,244.402,295.21,234.999,283.612,234.999z"/>
<path style="fill:#414042;" d="M283.612,234.999h-35.003v-58.08c0-11.598-9.402-21-21-21V277h56.002c11.598,0,21-9.402,21-21
	C304.611,244.402,295.21,234.999,283.612,234.999z"/>
<g>
</g>
<g>
</g>
<g>
</g>
<g>
</g>
<g>
</g>
<g>
</g>
<g>
</g>
<g>
</g>
<g>
</g>
<g>
</g>
<g>
</g>
<g>
</g>
<g>
</g>
<g>
</g>
<g>
</g>
</svg>
