<?xml version="1.0" encoding="iso-8859-1"?>
<!-- Generator: Adobe Illustrator 19.0.0, SVG Export Plug-In . SVG Version: 6.00 Build 0)  -->
<svg version="1.1" id="Layer_1" xmlns="http://www.w3.org/2000/svg" xmlns:xlink="http://www.w3.org/1999/xlink" x="0px" y="0px"
	 viewBox="0 0 512 512" style="enable-background:new 0 0 512 512;" xml:space="preserve">
<g>
	<g>
		<g>
			<path d="M273.068,247.467h-25.6V204.8c0-4.71-3.823-8.533-8.533-8.533s-8.533,3.823-8.533,8.533V256
				c0,4.71,3.823,8.533,8.533,8.533h34.133c4.71,0,8.533-3.823,8.533-8.533S277.779,247.467,273.068,247.467z"/>
			<path d="M375.465,221.867h-22.039c-6.823-22.848-20.308-42.847-38.198-57.73l-2.689-53.63c-0.001-0.018-0.004-0.035-0.005-0.053
				l-1.698-33.96c-0.001-0.04,0.002-0.08,0-0.12L309.12,42.24c-0.001-0.017-0.004-0.034-0.005-0.052l-1.303-25.984
				C307.36,7.117,299.867,0,290.771,0H187.535c-9.105,0-16.589,7.117-17.041,16.213l-1.306,26.027c-0.001,0.017,0.001,0.033,0,0.05
				l-1.713,34.084c-0.001,0.017,0.001,0.034,0,0.051l-1.713,34.082c-0.001,0.017,0.001,0.034,0,0.051l-2.668,53.201
				c-26.623,21.928-43.627,55.135-43.627,92.241c0,36.893,16.81,69.929,43.171,91.86l2.689,53.633
				c0.001,0.012,0.003,0.023,0.003,0.034l1.705,34.099c0.002,0.041,0.009,0.08,0.012,0.12l1.701,34.013
				c0,0.006,0.001,0.011,0.002,0.017l1.305,26.018C170.516,504.883,178,512,187.105,512h103.228c9.114,0,16.597-7.117,17.041-16.213
				l1.306-26.027c0-0.006,0-0.011,0-0.017l1.712-34.065c0.001-0.017,0.004-0.034,0.005-0.052l1.707-34.133
				c0.001-0.011-0.001-0.023,0-0.034l2.668-53.215c18.118-14.921,31.773-35.069,38.654-58.111h22.039
				c9.412,0,17.067-7.654,17.067-17.067v-34.133C392.532,229.521,384.877,221.867,375.465,221.867z M293.342,68.267H184.969
				L185.83,51.2h106.65L293.342,68.267z M184.118,85.333h110.071l0.862,17.067H183.256L184.118,85.333z M187.535,17.067h103.236
				l0.853,17.067H186.681L187.535,17.067z M182.405,119.467h113.493l1.626,32.452c-17.214-9.728-37.065-15.311-58.194-15.38
				c-0.06,0-0.119-0.005-0.179-0.005h-0.213c0,0-0.001,0-0.002,0c-0.001,0-0.001,0-0.002,0c-1.174,0-2.344,0.022-3.51,0.055
				c-0.387,0.011-0.772,0.029-1.158,0.044c-0.779,0.03-1.556,0.066-2.33,0.111c-0.462,0.027-0.923,0.056-1.384,0.088
				c-0.707,0.049-1.411,0.107-2.114,0.168c-0.477,0.042-0.954,0.08-1.43,0.127c-0.781,0.078-1.559,0.168-2.335,0.261
				c-0.809,0.096-1.616,0.203-2.422,0.316c-0.584,0.082-1.169,0.162-1.75,0.252c-0.616,0.096-1.229,0.201-1.842,0.306
				c-0.489,0.084-0.978,0.17-1.465,0.26c-0.631,0.116-1.261,0.236-1.89,0.363c-0.47,0.095-0.937,0.195-1.404,0.296
				c-0.628,0.135-1.257,0.266-1.882,0.411c-0.955,0.221-1.906,0.453-2.852,0.697c-0.531,0.137-1.06,0.285-1.589,0.43
				c-0.609,0.166-1.217,0.333-1.822,0.508c-0.46,0.133-0.918,0.271-1.376,0.41c-0.736,0.223-1.468,0.453-2.198,0.69
				c-0.317,0.103-0.634,0.203-0.95,0.309c-7.137,2.38-13.974,5.418-20.445,9.038L182.405,119.467z M184.527,443.733h108.373
				l-0.853,17.067H185.389L184.527,443.733z M293.757,426.667h-110.08l-0.853-17.067H294.61L293.757,426.667z M290.333,494.933
				H187.097l-0.853-17.067h104.943L290.333,494.933z M295.47,392.533H181.968l-1.627-32.454
				c17.323,9.79,37.315,15.388,58.593,15.388c0,0,0.001,0,0.001,0c0,0,0,0,0.001,0c0.002,0,0.005,0,0.007,0
				c1.171,0,2.336-0.022,3.499-0.055c0.393-0.011,0.785-0.03,1.178-0.045c0.77-0.03,1.539-0.065,2.306-0.11
				c0.468-0.027,0.935-0.057,1.402-0.089c0.699-0.049,1.396-0.105,2.092-0.166c0.483-0.042,0.966-0.081,1.447-0.129
				c0.774-0.077,1.544-0.167,2.313-0.258c0.813-0.097,1.625-0.204,2.434-0.317c0.587-0.082,1.174-0.163,1.759-0.254
				c0.61-0.095,1.217-0.199,1.824-0.303c0.499-0.086,0.997-0.173,1.494-0.265c0.621-0.115,1.24-0.233,1.859-0.357
				c0.491-0.099,0.979-0.204,1.467-0.309c0.607-0.13,1.214-0.257,1.818-0.397c0.986-0.228,1.967-0.467,2.943-0.719
				c0.477-0.123,0.951-0.257,1.426-0.387c0.651-0.177,1.301-0.355,1.947-0.543c0.43-0.125,0.86-0.254,1.289-0.384
				c0.778-0.235,1.552-0.479,2.323-0.729c0.278-0.091,0.558-0.179,0.835-0.272c7.15-2.381,14-5.423,20.482-9.049L295.47,392.533z
				 M301.99,336.63c-0.252,0.154-0.505,0.306-0.743,0.488c-10.12,7.787-21.319,13.515-33.187,17.056
				c-0.13,0.039-0.26,0.078-0.391,0.117c-1.191,0.35-2.388,0.677-3.592,0.983c-0.232,0.059-0.465,0.113-0.697,0.17
				c-1.039,0.256-2.083,0.496-3.131,0.719c-0.21,0.045-0.419,0.094-0.63,0.137c-1.123,0.232-2.252,0.438-3.385,0.631
				c-0.35,0.06-0.701,0.119-1.052,0.175c-1.128,0.181-2.26,0.347-3.396,0.49c-0.266,0.033-0.533,0.06-0.8,0.092
				c-1.018,0.12-2.04,0.225-3.065,0.314c-0.151,0.013-0.302,0.028-0.454,0.04v-16.708c0-4.71-3.823-8.533-8.533-8.533
				s-8.533,3.823-8.533,8.533v16.559c-19.828-1.635-38.507-8.886-54.194-21.091c-0.222-0.172-0.459-0.313-0.693-0.461
				c-21.632-17.112-36.214-42.758-38.622-71.808h16.708c4.71,0,8.533-3.823,8.533-8.533s-3.823-8.533-8.533-8.533h-16.708
				c2.422-29.217,17.157-54.992,38.995-72.104c0.248-0.152,0.497-0.302,0.731-0.481c10.08-7.753,21.228-13.467,33.041-17.012
				c0.152-0.045,0.303-0.091,0.455-0.136c1.181-0.348,2.368-0.675,3.562-0.98c0.227-0.058,0.456-0.111,0.683-0.167
				c0.991-0.246,1.987-0.475,2.987-0.691c0.275-0.059,0.549-0.123,0.825-0.18c1.094-0.226,2.193-0.43,3.295-0.62
				c0.374-0.065,0.75-0.127,1.125-0.187c1.112-0.179,2.227-0.346,3.347-0.489c0.248-0.031,0.497-0.056,0.745-0.085
				c0.996-0.119,1.995-0.223,2.997-0.313c0.24-0.022,0.479-0.044,0.719-0.064v16.708c0,4.71,3.823,8.533,8.533,8.533
				s8.533-3.823,8.533-8.533v-16.56c19.822,1.634,38.503,8.886,54.199,21.091c0.245,0.19,0.501,0.36,0.762,0.521
				c17.454,13.833,30.306,33.226,35.862,55.478c0.036,0.39,0.091,0.78,0.182,1.166c1.205,5.08,2.028,10.135,2.471,15.104h-16.675
				c-4.71,0-8.533,3.823-8.533,8.533s3.823,8.533,8.533,8.533h16.676c-0.443,4.97-1.266,10.023-2.471,15.104
				c-0.091,0.386-0.145,0.776-0.182,1.166C332.688,303.242,319.668,322.775,301.99,336.63z M375.465,273.067h-18.287
				c0.801-5.576,1.224-11.272,1.224-17.067s-0.423-11.491-1.224-17.067h18.287V273.067z"/>
		</g>
	</g>
</g>
<g>
</g>
<g>
</g>
<g>
</g>
<g>
</g>
<g>
</g>
<g>
</g>
<g>
</g>
<g>
</g>
<g>
</g>
<g>
</g>
<g>
</g>
<g>
</g>
<g>
</g>
<g>
</g>
<g>
</g>
</svg>
