<?xml version="1.0" standalone="no"?>
<!DOCTYPE svg PUBLIC "-//W3C//DTD SVG 20010904//EN"
 "http://www.w3.org/TR/2001/REC-SVG-20010904/DTD/svg10.dtd">
<svg version="1.0" xmlns="http://www.w3.org/2000/svg"
 width="100.000000pt" height="100.000000pt" viewBox="0 0 100.000000 100.000000"
 preserveAspectRatio="xMidYMid meet">

<g transform="translate(0.000000,100.000000) scale(0.100000,-0.100000)"
fill="#000000" stroke="none">
<path d="M379 942 c-79 -21 -150 -65 -216 -135 -126 -134 -157 -334 -76 -505
35 -75 140 -180 215 -215 31 -15 88 -32 126 -39 301 -51 575 222 524 523 -17
97 -53 169 -124 245 -118 126 -277 170 -449 126z m226 -37 c313 -81 418 -471
190 -700 -242 -241 -650 -109 -708 229 -50 295 226 546 518 471z"/>
<path d="M568 873 c-9 -10 -19 -36 -23 -58 -5 -32 -21 -54 -78 -110 -40 -39
-84 -86 -99 -105 -27 -37 -26 -37 -43 15 -4 13 -19 15 -77 13 l-73 -3 -5 -35
c-4 -20 -17 -50 -31 -69 -35 -47 -34 -125 3 -173 14 -19 28 -48 30 -64 3 -29
4 -29 73 -32 61 -3 71 -1 86 19 l16 21 90 -21 c114 -26 313 -30 370 -6 42 18
53 30 53 63 0 12 6 33 14 45 19 29 19 155 0 184 -8 12 -14 31 -14 41 0 39 -31
52 -124 52 -98 0 -105 5 -81 63 24 57 20 123 -10 152 -28 29 -56 32 -77 8z
m56 -49 c10 -27 7 -57 -14 -111 -19 -50 -19 -52 -1 -75 17 -20 30 -24 113 -28
l93 -5 3 -30 c2 -16 11 -36 20 -43 16 -12 16 -15 -1 -44 -17 -29 -17 -32 -1
-49 16 -18 16 -20 -4 -42 -14 -15 -19 -30 -15 -48 9 -46 -15 -54 -166 -54
-101 0 -157 5 -217 20 l-82 19 19 35 c22 41 24 83 5 126 -12 28 -10 32 32 85
24 30 67 75 94 99 50 44 88 105 88 141 0 24 25 27 34 4z m-304 -236 c0 -22 -4
-23 -70 -23 -66 0 -70 1 -70 23 0 21 4 22 70 22 66 0 70 -1 70 -22z m-10 -43
c43 -22 60 -53 60 -108 0 -42 -5 -54 -34 -83 -50 -50 -122 -50 -172 0 -29 29
-34 41 -34 81 0 57 12 80 53 105 38 24 87 26 127 5z m10 -257 c0 -16 -9 -18
-70 -18 -61 0 -70 2 -70 18 0 15 9 18 70 18 61 0 70 -3 70 -18z"/>
<path d="M179 511 c-23 -24 -29 -38 -29 -74 0 -63 35 -97 100 -97 65 0 100 34
100 97 0 62 -40 103 -100 103 -33 0 -48 -6 -71 -29z m130 -8 c12 -10 24 -35
28 -55 5 -32 1 -41 -25 -68 -21 -21 -40 -30 -62 -30 -22 0 -41 9 -62 30 -26
27 -30 36 -25 68 8 47 38 72 87 72 21 0 47 -8 59 -17z"/>
<path d="M240 460 c0 -27 3 -30 33 -29 23 1 26 3 10 6 -16 3 -23 11 -23 29 0
13 -4 24 -10 24 -5 0 -10 -13 -10 -30z"/>
</g>
</svg>
