<?xml version="1.0" standalone="no"?>
<!DOCTYPE svg PUBLIC "-//W3C//DTD SVG 20010904//EN"
 "http://www.w3.org/TR/2001/REC-SVG-20010904/DTD/svg10.dtd">
<svg version="1.0" xmlns="http://www.w3.org/2000/svg"
 width="100.000000pt" height="100.000000pt" viewBox="0 0 100.000000 100.000000"
 preserveAspectRatio="xMidYMid meet">
<metadata>
Created by potrace 1.16, written by Peter Selinger 2001-2019
</metadata>
<g transform="translate(0.000000,100.000000) scale(0.100000,-0.100000)"
fill="#000000" stroke="none">
<path d="M355 943 c-122 -44 -223 -135 -278 -250 -31 -65 -32 -73 -32 -194 0
-124 0 -126 37 -200 47 -95 130 -177 225 -222 65 -31 73 -32 193 -32 124 0
126 0 200 37 95 46 178 129 223 225 31 65 32 73 32 193 0 120 -1 128 -32 193
-45 95 -127 178 -222 225 -71 35 -81 37 -185 40 -86 2 -122 -2 -161 -15z m223
-40 c-15 -4 -48 -59 -48 -82 0 -27 -28 -65 -76 -101 -29 -22 -65 -61 -80 -86
-25 -43 -28 -45 -36 -25 -7 20 -13 22 -90 19 l-83 -3 -3 -30 c-2 -16 -15 -42
-28 -58 -24 -28 -30 -44 -38 -102 -2 -16 -3 15 -2 70 1 86 5 108 29 159 51
110 119 174 234 222 47 19 74 23 148 23 50 -1 83 -3 73 -6z m214 -114 c28 -28
63 -78 81 -117 29 -60 32 -77 33 -167 l2 -100 -8 75 c-16 167 -35 190 -156
190 -46 0 -84 2 -84 4 0 2 7 23 15 46 19 53 19 97 1 132 l-15 28 41 -21 c22
-11 63 -43 90 -70z m-185 -38 c-21 -61 -22 -115 -1 -135 11 -12 36 -16 94 -16
94 0 110 -5 103 -31 -3 -11 2 -28 13 -40 13 -15 15 -22 6 -31 -16 -16 -15 -65
1 -71 9 -3 7 -10 -7 -25 -12 -14 -17 -30 -13 -47 4 -22 0 -28 -22 -36 -42 -17
-257 -11 -339 9 -69 17 -72 19 -57 37 17 23 20 107 4 136 -8 16 -7 23 4 32 8
7 29 34 46 60 18 27 51 62 74 78 48 34 87 92 87 129 0 19 3 21 12 12 10 -10 9
-23 -5 -61z m-304 -259 c17 -18 21 -39 19 -80 -2 -16 -12 -27 -37 -38 -31 -12
-39 -12 -70 0 -35 15 -41 29 -36 80 3 34 31 56 71 56 23 0 43 -7 53 -18z m143
-238 c50 -11 108 -15 221 -12 84 2 153 0 153 -4 0 -16 -90 -83 -150 -112 -60
-29 -73 -31 -170 -31 -97 0 -110 2 -170 31 -64 31 -150 97 -150 115 0 5 33 9
74 9 41 0 78 5 81 10 9 14 33 13 111 -6z"/>
</g>
</svg>
