<svg class="svg-icon" style="width: 1em; height: 1em;vertical-align: middle;fill: currentColor;overflow: hidden;" viewBox="0 0 1024 1024" version="1.1" xmlns="http://www.w3.org/2000/svg"><path d="M243.954663 779.977287l223.420489 0L467.375152 556.642756 243.954663 556.642756 243.954663 779.977287zM288.623002 601.310072l134.086881 0 0 134.042879L288.623002 735.352951 288.623002 601.310072zM779.95324 65.311495 243.954663 65.311495c-98.579179 0-178.665169 79.953983-178.665169 178.709171l0 535.956621c0 98.623181 80.08599 178.709171 178.665169 178.709171l535.998577 0c98.755188 0 178.75522-80.08599 178.75522-178.709171L958.70846 244.020666C958.70846 145.265478 878.708428 65.311495 779.95324 65.311495zM869.374852 735.353974c0 73.979922-60.021002 133.956921-133.998877 133.956921L288.623002 869.310895c-73.979922 0-133.912919-59.977-133.912919-133.956921L154.710083 288.643979c0-73.979922 59.932997-134.042879 133.912919-134.042879l446.752973 0c73.977875 0 133.998877 60.062957 133.998877 134.042879L869.374852 735.353974zM556.620755 467.353151l223.332485 0L779.95324 244.020666 556.620755 244.020666 556.620755 467.353151zM601.375052 288.643979l134.000923 0 0 134.042879L601.375052 422.686858 601.375052 288.643979zM556.620755 779.977287l223.332485 0L779.95324 556.642756 556.620755 556.642756 556.620755 779.977287zM601.375052 601.310072l134.000923 0 0 134.042879L601.375052 735.352951 601.375052 601.310072zM243.954663 467.353151l223.420489 0L467.375152 244.020666 243.954663 244.020666 243.954663 467.353151zM288.623002 288.643979l134.086881 0 0 134.042879L288.623002 422.686858 288.623002 288.643979z"  /></svg>