<?xml version="1.0" encoding="utf-8"?>
<!-- Svg Vector Icons : http://www.onlinewebfonts.com/icon -->
<!DOCTYPE svg PUBLIC "-//W3C//DTD SVG 1.1//EN" "http://www.w3.org/Graphics/SVG/1.1/DTD/svg11.dtd">
<svg version="1.1" xmlns="http://www.w3.org/2000/svg" xmlns:xlink="http://www.w3.org/1999/xlink" x="0px" y="0px" viewBox="0 0 1000 1000" enable-background="new 0 0 1000 1000" xml:space="preserve">
<metadata> Svg Vector Icons : http://www.onlinewebfonts.com/icon </metadata>
<g><path d="M867.5,990h-735C64.9,990,10,935.1,10,867.5v-735C10,64.9,64.9,10,132.5,10h735C935.1,10,990,64.9,990,132.5v735C990,935.1,935.1,990,867.5,990z M928.8,132.5c0-33.8-27.5-61.3-61.3-61.3h-735c-33.8,0-61.3,27.5-61.3,61.3v735c0,33.8,27.5,61.3,61.3,61.3h735c33.8,0,61.3-27.5,61.3-61.3V132.5z M775.6,836.9H591.9c-33.8,0-61.3-27.5-61.3-61.3V591.9c0-33.8,27.5-61.3,61.3-61.3h183.8c33.8,0,61.3,27.5,61.3,61.3v183.8C836.9,809.4,809.4,836.9,775.6,836.9z M775.6,591.9H591.9v183.8h183.8V591.9z M775.6,469.4H591.9c-33.8,0-61.3-27.5-61.3-61.3V224.4c0-33.8,27.5-61.3,61.3-61.3h183.8c33.8,0,61.3,27.5,61.3,61.3v183.8C836.9,441.9,809.4,469.4,775.6,469.4z M775.6,224.4H591.9v183.8h183.8V224.4z M408.1,836.9H224.4c-33.8,0-61.3-27.5-61.3-61.3V591.9c0-33.8,27.5-61.3,61.3-61.3h183.8c33.8,0,61.3,27.5,61.3,61.3v183.8C469.4,809.4,441.9,836.9,408.1,836.9z M408.1,591.9H224.4v183.8h183.8V591.9z M408.1,469.4H224.4c-33.8,0-61.3-27.5-61.3-61.3V224.4c0-33.8,27.5-61.3,61.3-61.3h183.8c33.8,0,61.3,27.5,61.3,61.3v183.8C469.4,441.9,441.9,469.4,408.1,469.4z M408.1,224.4H224.4v183.8h183.8V224.4z"/></g>
</svg>